<svg xmlns="http://www.w3.org/2000/svg" xmlns:xlink="http://www.w3.org/1999/xlink" width="1600" height="826.667"><image xlink:href="CHN Logo Final_black.png" preserveAspectRatio="none" height="826.667" width="1600"/><path d="M464.667 704.662c-50.345-9.513-88.851-51.782-93.455-102.586l-.91-10.047 57.849-.348 57.849-.348.347-57.666.348-57.667 4.32.01c7.126.017 21.1 2.568 30.318 5.535 60.45 19.454 93.91 84.673 74.456 145.122-17.733 55.101-74.28 88.737-131.122 77.996zM1070.79 584.29c-6.898-15.192-13.362-28.972-14.364-30.622-1.672-2.753-2.807-3-13.791-3h-11.97V569.1c0 17.545.15 18.574 3.087 21.333 3.357 3.155 7.6 3.697 11.71 1.496 2.342-1.253 2.974-.607 5.913 6.038 1.81 4.093 3.29 7.755 3.29 8.138 0 1.839-10.067 4.56-16.869 4.56-10.699 0-18.145-3.849-22.816-11.794-3.485-5.928-3.669-7.143-4.12-27.205l-.474-21h-14.514l.397-8.334.397-8.333 6.954-.401 6.954-.402.38-13.598.378-13.599H1030l.38 13.667.38 13.666h38.298l7.239 18.093c3.981 9.951 7.793 17.959 8.471 17.795.678-.164 4.544-8.156 8.593-17.76l7.36-17.461 8.105-.392 8.105-.391 7.738 18.788c4.255 10.334 8.194 18.31 8.752 17.725.557-.585 4.28-8.863 8.27-18.397l7.257-17.333 9.526-.392c5.24-.215 9.528.085 9.53.667.01 1.725-35.155 77.727-35.946 77.7-.399-.014-5.797-11.414-11.997-25.334s-11.637-25.308-12.082-25.308c-.445 0-5.836 11.4-11.979 25.334-6.143 13.933-11.506 25.313-11.918 25.289-.412-.024-6.393-12.474-13.291-27.667zm-127.194 24.53c-22.743-8.46-32.522-33.942-21.596-56.274 6.81-13.92 20.284-21.476 36.039-20.211 20.221 1.623 33.462 15.736 35.006 37.311l.646 9.022h-28.18c-16.336 0-28.179.517-28.179 1.23 0 .678 1.622 3.16 3.605 5.515 7.17 8.52 18.733 10.22 30.922 4.547 3.957-1.842 7.31-3.186 7.451-2.987 5.972 8.412 8.743 13.501 7.836 14.387-.631.615-4.447 2.776-8.48 4.803-5.933 2.98-9.499 3.767-18.667 4.114-7.47.282-13.061-.214-16.403-1.457zm29.736-46.64c0-1-1.253-3.412-2.784-5.36-7.828-9.95-22.603-9.95-30.431 0-5.323 6.767-4.445 7.181 15.215 7.181 14.321 0 18-.372 18-1.82zm219.604 46.643c-12.03-4.478-21.09-13.832-25.065-25.875-2.26-6.848-.874-22.482 2.593-29.245 8.838-17.242 29.189-25.48 48.834-19.77 10.674 3.104 22.166 14.368 25.25 24.751 5.831 19.639-2.075 39.172-19.494 48.159-7.25 3.74-24.53 4.806-32.118 1.98zm23.59-18.51c6.556-3.758 10.14-10.365 10.14-18.69 0-7.514-2.347-12.66-7.906-17.338-15.006-12.627-37.429 3.24-32.171 22.764 3.813 14.16 17.667 20.299 29.938 13.263zm-401.86-37.042v-56.064l8.333.397 8.333.397 27.334 37.582L886 573.163l.354-37.915.354-37.915h18.625v112l-8.333-.002-8.333-.003-27.334-37.649L834 534.031l-.354 37.651-.354 37.651h-18.625V553.27zM1256 571.272v-38.06l9 .394 9 .394.772 4.667c.61 3.683.993 4.167 1.823 2.298 1.612-3.633 11.736-8.965 17.022-8.965 7.296 0 13.05 1.49 13.05 3.381 0 .943-1.26 5.01-2.802 9.035-2.776 7.254-2.84 7.31-6.99 6.12-6.21-1.782-12.457-.085-17.62 4.784l-4.588 4.328v49.685H1256zm58.667-13.939v-52h18.666l.037 29 .037 29 14.296-15.088 14.296-15.088 11.886.421 11.887.422-15.887 17.124c-8.737 9.418-16.028 17.518-16.2 18-.29.811 2.73 4.358 26.118 30.677l8.47 9.532h-25.415l-14.43-16.271-14.43-16.272-.374 16.272-.374 16.271h-18.585v-52zm-1084.454 29.27c-44.048-7.393-79.209-38.584-92.364-81.936-3.271-10.78-3.642-14.034-3.642-32 0-17.968.37-21.213 3.635-31.935 11.493-37.736 39.01-66.114 75.491-77.855 9.545-3.071 23.25-5.518 31-5.534l5-.01v116H364l-.01 4.334c-.033 13.792-5.42 33.351-13.527 49.118-21.957 42.696-72.492 67.834-120.25 59.818zm374.801-174.936L604.667 354l-57.85-.348-57.849-.347.91-10.048c1.974-21.774 11.754-45.685 25.508-62.36 53.378-64.712 156.253-52.73 192.608 22.436 9.283 19.193 11.286 28.187 11.286 50.667s-2.003 31.474-11.286 50.667c-13.685 28.294-38.06 49.489-67.994 59.122-9.22 2.967-23.192 5.518-30.32 5.534l-4.318.011-.348-57.667zm339.652 55.903c-2.934-.968-7.836-3.414-10.892-5.437-23.723-15.698-21.22-55.537 4.283-68.183 4.063-2.015 8.035-2.617 17.276-2.617 10.67 0 12.687.404 18.193 3.64 11.63 6.838 17.71 16.962 19.258 32.068l.918 8.959h-28.185c-31.492 0-31.585.033-24.062 8.602 7.235 8.24 19.924 9.382 31.445 2.831l5.567-3.165 4.735 7.131 4.735 7.131-3.635 2.583c-9.868 7.01-28.67 10.073-39.636 6.457zm28.667-46.923c0-1.11-2.013-4.216-4.473-6.9-3.997-4.362-5.31-4.94-12.333-5.433-6.602-.462-8.593-.05-12.434 2.568-2.516 1.715-5.368 5.068-6.338 7.451l-1.763 4.334h18.67c15.788 0 18.671-.312 18.671-2.02zm43.58 47.33c-11.06-3.32-17.532-13.177-16.651-25.359.691-9.56 4.984-15.709 14.035-20.106 7.78-3.78 22.156-4.114 30.2-.702 2.839 1.205 5.436 2.19 5.772 2.19 1.55 0-1.524-8.994-3.993-11.682-5.395-5.874-14.666-6.14-32.412-.933-2.41.708-3.229-.225-5.841-6.662-1.671-4.117-2.81-7.698-2.53-7.958.279-.26 3.507-1.523 7.174-2.808 8.897-3.117 28.258-4.125 36.253-1.886 8.01 2.243 16.95 10.708 18.933 17.929.834 3.035 1.469 16.681 1.473 31.667l.01 26.333H1052v-9.798l-3 2.816c-7.454 6.998-21.68 10.083-32.087 6.96zm26.623-18.025c5.615-3.291 8.231-7.827 6.747-11.696-.92-2.394-9.928-4.923-17.54-4.923-5.165 0-6.974.693-10.179 3.898-4.186 4.186-4.893 7.678-2.23 11.015 4.803 6.021 14.608 6.742 23.202 1.706zm101.807 17.257c-2.562-1.11-6.069-3.337-7.793-4.947-6.543-6.11-7.423-9.63-7.976-31.929l-.52-21h-14.387V392h14.666v-24h20v24H1172v17.333h-22.667v18.06c0 17.583.09 18.152 3.4 21.462 3.343 3.342 5.295 3.508 11.817 1.005 3.036-1.165 10.038 13.852 7.284 15.62-6.293 4.04-19.218 4.884-26.491 1.73zM814.667 412v-56h18.666v45.333h53.334V356h18.666v112h-18.666v-48h-53.334v48h-18.666zm270.666 6v-50H1104v100h-18.667zm99.61 49.166c-.518-.52-.943-23.044-.943-50.055V368h20V399.873l3.462-3.21c4.878-4.52 11.568-6.387 20.555-5.737 9.668.7 15.994 4.766 20.617 13.254 3.305 6.068 3.366 6.706 3.366 35V468h-18.508l-.413-25.896c-.402-25.259-.491-25.98-3.626-29.313-5.929-6.305-16.168-5.836-22.624 1.036-2.571 2.737-2.794 4.747-3.132 28.227l-.364 25.28-8.723.387c-4.798.214-9.148-.036-9.667-.555zM1130.668 304v-52H1148v8.126l5-3.918c11.922-9.34 26.661-8.772 40.645 1.566 8.95 6.618 15.406 23.562 13.745 36.082-1.906 14.366-11.22 27.414-23.137 32.41-10.21 4.28-24.783 2.208-32.586-4.633-2.208-1.937-2.334-1.07-2.334 16.16V356h-18.666zm49.055 3.124c11.453-8.395 10.877-28.175-1.055-36.215-3.896-2.625-5.936-3.056-12.348-2.608-6.55.459-8.368 1.203-12.334 5.047-4.605 4.463-4.652 4.625-4.652 15.997 0 10.82.214 11.688 3.667 14.894 2.017 1.872 4.867 4.101 6.333 4.953 3.946 2.292 16.126 1.057 20.389-2.068zM346 348.662c-42.834-8.094-76.563-38.749-89.484-81.329-3.272-10.78-3.642-14.033-3.642-32 0-17.986.368-21.208 3.65-32 27.173-89.314 141.03-112.703 200.09-41.102 14.821 17.968 26.053 47.002 26.053 67.347v5.089H368v116l-6.333-.12c-3.484-.067-10.534-.915-15.667-1.885zm511.333-20.804c-37.081-6.145-57.112-48.13-39.868-83.564 15.126-31.083 56-40.282 84.868-19.102 3.117 2.287 5.667 4.998 5.667 6.026 0 1.027-2.918 4.31-6.485 7.297l-6.485 5.43-2.515-2.828c-7.693-8.651-27.123-11.798-39.182-6.346-23.763 10.744-30.182 44.333-12.263 64.167 12.9 14.278 35.274 15.6 51.167 3.024l5.75-4.55 6.329 6.232 6.328 6.234-3.468 3.62c-3.842 4.01-15.955 10.754-23.176 12.903-7.286 2.168-18.634 2.788-26.667 1.457zm87.87.139c-11.262-1.931-21.292-9.124-27.504-19.724-2.833-4.834-3.647-8.203-4.11-17.014-.501-9.571-.154-11.907 2.695-18.131 6.83-14.92 20.048-23.15 37.09-23.094 8.218.027 11.408.702 17.575 3.72 17.466 8.545 25.981 27.858 20.538 46.583-3.172 10.911-9.283 18.179-19.546 23.246-9.508 4.695-17.45 6.006-26.737 4.414zm19.852-20.873c5.164-3.785 8.275-10.726 8.271-18.457-.005-12.288-8.285-20.653-20.454-20.662-12.465-.009-20.16 8.231-20.16 21.588 0 8.56 2.426 12.941 10.077 18.192 3.733 2.563 5.804 3.018 11.6 2.553 4.173-.335 8.53-1.648 10.666-3.214zm316.462 20.774c-25.344-4.982-39.095-33.054-27.88-56.914 12.898-27.438 51.788-28.51 66.77-1.841 3.146 5.6 4.148 9.27 4.644 17l.633 9.857h-28.175c-16.334 0-28.176.517-28.176 1.231 0 2.154 6.845 9.46 10.76 11.484 5.966 3.085 17.074 2.482 24.616-1.336 3.571-1.808 6.576-3.158 6.676-3 .1.158 2.112 3.143 4.47 6.632 2.359 3.49 3.914 6.951 3.456 7.692-1.614 2.61-13.509 7.742-21.276 9.178-8.728 1.613-8.399 1.613-16.518.017zm24.335-46.326c1.026-1.66-3.956-9.142-7.738-11.62-8.415-5.514-21.17-3.084-26.08 4.968-4.66 7.645-4.46 7.747 15.22 7.747 9.857 0 18.226-.493 18.598-1.095zm57.481 46.543c-7.137-1.789-12.344-5.279-15.538-10.416-2.862-4.604-3.185-6.906-3.795-27.032l-.667-22-7.666-.4-7.667-.4v-15.734l7.667-.4 7.666-.4.384-12.333.383-12.333h18.567V252h22.666v16h-22.666v18.434c0 17.545.149 18.574 3.086 21.334 3.355 3.151 7.599 3.696 11.7 1.501 2.316-1.239 2.982-.599 5.899 5.667 1.809 3.885 3.295 7.693 3.302 8.463.029 3.136-16.383 6.455-23.32 4.716zm59.63-.198c-8.658-1.706-18.79-7.851-23.832-14.454-14.745-19.311-8.764-49.264 11.853-59.35 9.65-4.722 18.638-5.66 28.038-2.928 16.147 4.695 26.05 17.524 27.33 35.407l.673 9.408h-28.18c-16.335 0-28.178.517-28.178 1.231 0 2.154 6.844 9.46 10.759 11.484 5.966 3.085 17.074 2.482 24.616-1.336 3.572-1.808 6.576-3.158 6.676-3 .1.158 2.113 3.143 4.471 6.632 2.358 3.49 3.913 6.951 3.455 7.692-1.613 2.61-13.509 7.742-21.276 9.178-8.716 1.61-8.418 1.61-16.405.036zm24.223-46.345c1.026-1.66-3.957-9.142-7.738-11.62-8.416-5.514-21.172-3.084-26.08 4.968-4.662 7.645-4.461 7.747 15.22 7.747 9.857 0 18.226-.493 18.598-1.095zm-444.52 7.761V252H1020V261.723l3.328-3.591c4.087-4.41 13.298-8.733 18.672-8.762 6.933-.038 14.017 2.653 19.118 7.261l4.93 4.454 4.85-4.445c13.418-12.297 35.245-8.212 42.596 7.972 2.125 4.678 2.451 9.12 2.477 33.721l.029 28.334h-18.509l-.412-25.896c-.403-25.303-.487-25.975-3.645-29.334-4.795-5.099-14.259-4.894-19.96.431l-4.141 3.869v50.93h-19.845l-.41-26.787c-.404-26.311-.468-26.833-3.56-29.334-5.117-4.14-13.747-3.434-19.472 1.592l-4.713 4.138V326.667h-18.666zm216-12.666v-50h20v100h-20z"/></svg>